<?xml version="1.0" encoding="UTF-8" standalone="no"?><!DOCTYPE svg PUBLIC "-//W3C//DTD SVG 1.1//EN" "http://www.w3.org/Graphics/SVG/1.1/DTD/svg11.dtd"><!-- Generated by graphviz version 2.40.1 (20161225.0304)
 --><!-- Title: G Pages: 1 --><svg xmlns="http://www.w3.org/2000/svg" xmlns:xlink="http://www.w3.org/1999/xlink" width="1682pt" height="277pt" viewBox="0.00 0.00 1682.34 276.80">
<g id="graph0" class="graph" transform="scale(1 1) rotate(0) translate(4 272.8)">
<title>G</title>
<polygon fill="#ffffff" stroke="transparent" points="-4,4 -4,-272.8 1678.3422,-272.8 1678.3422,4 -4,4"/>
<g id="clust1" class="cluster">
<title>cluster_encoder</title>
<path fill="none" stroke="#000000" d="M353.7932,-127C353.7932,-127 1397.4564,-127 1397.4564,-127 1403.4564,-127 1409.4564,-133 1409.4564,-139 1409.4564,-139 1409.4564,-226 1409.4564,-226 1409.4564,-232 1403.4564,-238 1397.4564,-238 1397.4564,-238 353.7932,-238 353.7932,-238 347.7932,-238 341.7932,-232 341.7932,-226 341.7932,-226 341.7932,-139 341.7932,-139 341.7932,-133 347.7932,-127 353.7932,-127"/>
<text text-anchor="middle" x="875.6248" y="-221.4" font-family="Times,serif" font-size="14.00" fill="#000000">Encoder</text>
</g>
<g id="clust2" class="cluster">
<title>cluster_decoder</title>
<path fill="none" stroke="#000000" d="M20,-8C20,-8 1654.3422,-8 1654.3422,-8 1660.3422,-8 1666.3422,-14 1666.3422,-20 1666.3422,-20 1666.3422,-107 1666.3422,-107 1666.3422,-113 1660.3422,-119 1654.3422,-119 1654.3422,-119 20,-119 20,-119 14,-119 8,-113 8,-107 8,-107 8,-20 8,-20 8,-14 14,-8 20,-8"/>
<text text-anchor="middle" x="837.1711" y="-102.4" font-family="Times,serif" font-size="14.00" fill="#000000">Decoder</text>
</g>
<!-- input -->
<g id="node1" class="node">
<title>input</title>
<path fill="none" stroke="#000000" d="M210.4838,-163C210.4838,-163 160.0646,-163 160.0646,-163 154.0646,-163 148.0646,-157 148.0646,-151 148.0646,-151 148.0646,-139 148.0646,-139 148.0646,-133 154.0646,-127 160.0646,-127 160.0646,-127 210.4838,-127 210.4838,-127 216.4838,-127 222.4838,-133 222.4838,-139 222.4838,-139 222.4838,-151 222.4838,-151 222.4838,-157 216.4838,-163 210.4838,-163"/>
<text text-anchor="middle" x="185.2742" y="-140.8" font-family="Times,serif" font-size="14.00" fill="#000000">Input Text</text>
</g>
<!-- input&#45;&gt;input -->
<!-- enc_input -->
<g id="node2" class="node">
<title>enc_input</title>
<path fill="#add8e6" stroke="#add8e6" d="M391.7932,-180C391.7932,-180 361.7932,-180 361.7932,-180 355.7932,-180 349.7932,-174 349.7932,-168 349.7932,-168 349.7932,-156 349.7932,-156 349.7932,-150 355.7932,-144 361.7932,-144 361.7932,-144 391.7932,-144 391.7932,-144 397.7932,-144 403.7932,-150 403.7932,-156 403.7932,-156 403.7932,-168 403.7932,-168 403.7932,-174 397.7932,-180 391.7932,-180"/>
<text text-anchor="middle" x="376.7932" y="-157.8" font-family="Times,serif" font-size="14.00" fill="#000000">Input</text>
</g>
<!-- input&#45;&gt;enc_input -->
<g id="edge9" class="edge">
<title>input-&gt;enc_input</title>
<path fill="none" stroke="#000000" d="M222.6556,-148.3181C256.3478,-151.3088 305.6311,-155.6834 339.3441,-158.6759"/>
<polygon fill="#000000" stroke="#000000" points="339.4329,-162.1974 349.7032,-159.5954 340.0519,-155.2248 339.4329,-162.1974"/>
<text text-anchor="middle" x="287.6708" y="-161.2" font-family="Times,serif" font-size="14.00" fill="#000000">Tokenized Text</text>
</g>
<!-- enc_embedding -->
<g id="node3" class="node">
<title>enc_embedding</title>
<path fill="#add8e6" stroke="#add8e6" d="M809.1173,-175C809.1173,-175 753.0179,-175 753.0179,-175 747.0179,-175 741.0179,-169 741.0179,-163 741.0179,-163 741.0179,-151 741.0179,-151 741.0179,-145 747.0179,-139 753.0179,-139 753.0179,-139 809.1173,-139 809.1173,-139 815.1173,-139 821.1173,-145 821.1173,-151 821.1173,-151 821.1173,-163 821.1173,-163 821.1173,-169 815.1173,-175 809.1173,-175"/>
<text text-anchor="middle" x="781.0676" y="-152.8" font-family="Times,serif" font-size="14.00" fill="#000000">Embedding</text>
</g>
<!-- enc_input&#45;&gt;enc_embedding -->
<g id="edge1" class="edge">
<title>enc_input-&gt;enc_embedding</title>
<path fill="none" stroke="#000000" d="M403.9465,-161.6642C470.8896,-160.8362 644.6469,-158.6872 730.9339,-157.62"/>
<polygon fill="#000000" stroke="#000000" points="731.0541,-161.1189 741.01,-157.4954 730.9675,-154.1195 731.0541,-161.1189"/>
</g>
<!-- enc_transformer -->
<g id="node4" class="node">
<title>enc_transformer</title>
<path fill="#add8e6" stroke="#add8e6" d="M1099.3376,-173C1099.3376,-173 996.2432,-173 996.2432,-173 990.2432,-173 984.2432,-167 984.2432,-161 984.2432,-161 984.2432,-149 984.2432,-149 984.2432,-143 990.2432,-137 996.2432,-137 996.2432,-137 1099.3376,-137 1099.3376,-137 1105.3376,-137 1111.3376,-143 1111.3376,-149 1111.3376,-149 1111.3376,-161 1111.3376,-161 1111.3376,-167 1105.3376,-173 1099.3376,-173"/>
<text text-anchor="middle" x="1047.7904" y="-150.8" font-family="Times,serif" font-size="14.00" fill="#000000">Transformer Layers</text>
</g>
<!-- enc_embedding&#45;&gt;enc_transformer -->
<g id="edge2" class="edge">
<title>enc_embedding-&gt;enc_transformer</title>
<path fill="none" stroke="#000000" d="M821.2875,-156.6984C861.5718,-156.3963 924.5033,-155.9245 973.8188,-155.5547"/>
<polygon fill="#000000" stroke="#000000" points="974.149,-159.0524 984.1224,-155.4774 974.0965,-152.0526 974.149,-159.0524"/>
</g>
<!-- enc_output -->
<g id="node5" class="node">
<title>enc_output</title>
<path fill="#add8e6" stroke="#add8e6" d="M1389.684,-171C1389.684,-171 1260.775,-171 1260.775,-171 1254.775,-171 1248.775,-165 1248.775,-159 1248.775,-159 1248.775,-147 1248.775,-147 1248.775,-141 1254.775,-135 1260.775,-135 1260.775,-135 1389.684,-135 1389.684,-135 1395.684,-135 1401.684,-141 1401.684,-147 1401.684,-147 1401.684,-159 1401.684,-159 1401.684,-165 1395.684,-171 1389.684,-171"/>
<text text-anchor="middle" x="1325.2295" y="-148.8" font-family="Times,serif" font-size="14.00" fill="#000000">Encoded Representation</text>
</g>
<!-- enc_transformer&#45;&gt;enc_output -->
<g id="edge3" class="edge">
<title>enc_transformer-&gt;enc_output</title>
<path fill="none" stroke="#000000" d="M1111.4405,-154.5412C1149.2018,-154.2689 1197.5833,-153.9202 1238.7674,-153.6233"/>
<polygon fill="#000000" stroke="#000000" points="1238.8233,-157.1231 1248.7978,-153.551 1238.7728,-150.1233 1238.8233,-157.1231"/>
</g>
<!-- enc_output&#45;&gt;enc_output -->
<!-- dec_input -->
<g id="node6" class="node">
<title>dec_input</title>
<path fill="#add8e6" stroke="#add8e6" d="M58,-69C58,-69 28,-69 28,-69 22,-69 16,-63 16,-57 16,-57 16,-45 16,-45 16,-39 22,-33 28,-33 28,-33 58,-33 58,-33 64,-33 70,-39 70,-45 70,-45 70,-57 70,-57 70,-63 64,-69 58,-69"/>
<text text-anchor="middle" x="43" y="-46.8" font-family="Times,serif" font-size="14.00" fill="#000000">Input</text>
</g>
<!-- enc_output&#45;&gt;dec_input -->
<g id="edge10" class="edge">
<title>enc_output-&gt;dec_input</title>
<path fill="none" stroke="#000000" d="M1311.3579,-171.1581C1287.7969,-199.7386 1236.9644,-252 1180.2831,-252 107.5,-252 107.5,-252 107.5,-252 71.6818,-252 52.9575,-134.8153 46.1054,-79.3987"/>
<polygon fill="#000000" stroke="#000000" points="49.5481,-78.7087 44.8917,-69.1919 42.597,-79.5353 49.5481,-78.7087"/>
<text text-anchor="middle" x="654.5665" y="-256.2" font-family="Times,serif" font-size="14.00" fill="#000000">Encoded Representation</text>
</g>
<!-- dec_output -->
<g id="node11" class="node">
<title>dec_output</title>
<path fill="#add8e6" stroke="#add8e6" d="M1646.5706,-52C1646.5706,-52 1538.6586,-52 1538.6586,-52 1532.6586,-52 1526.6586,-46 1526.6586,-40 1526.6586,-40 1526.6586,-28 1526.6586,-28 1526.6586,-22 1532.6586,-16 1538.6586,-16 1538.6586,-16 1646.5706,-16 1646.5706,-16 1652.5706,-16 1658.5706,-22 1658.5706,-28 1658.5706,-28 1658.5706,-40 1658.5706,-40 1658.5706,-46 1652.5706,-52 1646.5706,-52"/>
<text text-anchor="middle" x="1592.6146" y="-29.8" font-family="Times,serif" font-size="14.00" fill="#000000">Generated Summary</text>
</g>
<!-- enc_output&#45;&gt;dec_output -->
<!-- dec_embedding -->
<g id="node7" class="node">
<title>dec_embedding</title>
<path fill="#add8e6" stroke="#add8e6" d="M213.3239,-60C213.3239,-60 157.2245,-60 157.2245,-60 151.2245,-60 145.2245,-54 145.2245,-48 145.2245,-48 145.2245,-36 145.2245,-36 145.2245,-30 151.2245,-24 157.2245,-24 157.2245,-24 213.3239,-24 213.3239,-24 219.3239,-24 225.3239,-30 225.3239,-36 225.3239,-36 225.3239,-48 225.3239,-48 225.3239,-54 219.3239,-60 213.3239,-60"/>
<text text-anchor="middle" x="185.2742" y="-37.8" font-family="Times,serif" font-size="14.00" fill="#000000">Embedding</text>
</g>
<!-- dec_input&#45;&gt;dec_embedding -->
<g id="edge4" class="edge">
<title>dec_input-&gt;dec_embedding</title>
<path fill="none" stroke="#000000" d="M70.0956,-49.286C88.4007,-48.128 113.1202,-46.5643 134.9657,-45.1824"/>
<polygon fill="#000000" stroke="#000000" points="135.3326,-48.6663 145.0917,-44.5419 134.8906,-41.6803 135.3326,-48.6663"/>
</g>
<!-- dec_transformer -->
<g id="node8" class="node">
<title>dec_transformer</title>
<path fill="#add8e6" stroke="#add8e6" d="M556.1136,-56C556.1136,-56 453.0192,-56 453.0192,-56 447.0192,-56 441.0192,-50 441.0192,-44 441.0192,-44 441.0192,-32 441.0192,-32 441.0192,-26 447.0192,-20 453.0192,-20 453.0192,-20 556.1136,-20 556.1136,-20 562.1136,-20 568.1136,-26 568.1136,-32 568.1136,-32 568.1136,-44 568.1136,-44 568.1136,-50 562.1136,-56 556.1136,-56"/>
<text text-anchor="middle" x="504.5664" y="-33.8" font-family="Times,serif" font-size="14.00" fill="#000000">Transformer Layers</text>
</g>
<!-- dec_embedding&#45;&gt;dec_transformer -->
<g id="edge5" class="edge">
<title>dec_embedding-&gt;dec_transformer</title>
<path fill="none" stroke="#000000" d="M225.3895,-41.4974C276.8213,-40.8531 366.9807,-39.7236 430.9139,-38.9227"/>
<polygon fill="#000000" stroke="#000000" points="430.9843,-42.4222 440.9396,-38.7971 430.8965,-35.4227 430.9843,-42.4222"/>
</g>
<!-- dec_linear -->
<g id="node9" class="node">
<title>dec_linear</title>
<path fill="#add8e6" stroke="#add8e6" d="M934.8555,-54C934.8555,-54 870.5035,-54 870.5035,-54 864.5035,-54 858.5035,-48 858.5035,-42 858.5035,-42 858.5035,-30 858.5035,-30 858.5035,-24 864.5035,-18 870.5035,-18 870.5035,-18 934.8555,-18 934.8555,-18 940.8555,-18 946.8555,-24 946.8555,-30 946.8555,-30 946.8555,-42 946.8555,-42 946.8555,-48 940.8555,-54 934.8555,-54"/>
<text text-anchor="middle" x="902.6795" y="-31.8" font-family="Times,serif" font-size="14.00" fill="#000000">Linear Layer</text>
</g>
<!-- dec_transformer&#45;&gt;dec_linear -->
<g id="edge6" class="edge">
<title>dec_transformer-&gt;dec_linear</title>
<path fill="none" stroke="#000000" d="M568.5302,-37.6787C645.9391,-37.2898 774.9555,-36.6416 847.9576,-36.2749"/>
<polygon fill="#000000" stroke="#000000" points="848.327,-39.7732 858.3092,-36.2229 848.2917,-32.7733 848.327,-39.7732"/>
</g>
<!-- dec_softmax -->
<g id="node10" class="node">
<title>dec_softmax</title>
<path fill="#add8e6" stroke="#add8e6" d="M1200.2236,-53C1200.2236,-53 1160.3426,-53 1160.3426,-53 1154.3426,-53 1148.3426,-47 1148.3426,-41 1148.3426,-41 1148.3426,-29 1148.3426,-29 1148.3426,-23 1154.3426,-17 1160.3426,-17 1160.3426,-17 1200.2236,-17 1200.2236,-17 1206.2236,-17 1212.2236,-23 1212.2236,-29 1212.2236,-29 1212.2236,-41 1212.2236,-41 1212.2236,-47 1206.2236,-53 1200.2236,-53"/>
<text text-anchor="middle" x="1180.2831" y="-30.8" font-family="Times,serif" font-size="14.00" fill="#000000">Softmax</text>
</g>
<!-- dec_linear&#45;&gt;dec_softmax -->
<g id="edge7" class="edge">
<title>dec_linear-&gt;dec_softmax</title>
<path fill="none" stroke="#000000" d="M946.9736,-35.8404C999.5317,-35.6511 1086.5185,-35.3378 1138.1231,-35.1519"/>
<polygon fill="#000000" stroke="#000000" points="1138.2749,-38.6514 1148.2622,-35.1153 1138.2496,-31.6515 1138.2749,-38.6514"/>
</g>
<!-- dec_softmax&#45;&gt;dec_output -->
<g id="edge8" class="edge">
<title>dec_softmax-&gt;dec_output</title>
<path fill="none" stroke="#000000" d="M1212.295,-34.9224C1277.0654,-34.7653 1425.226,-34.406 1516.3211,-34.185"/>
<polygon fill="#000000" stroke="#000000" points="1516.5996,-37.6845 1526.5911,-34.1601 1516.5826,-30.6845 1516.5996,-37.6845"/>
</g>
<!-- dec_output&#45;&gt;dec_output -->
</g>
</svg>